<svg xmlns="http://www.w3.org/2000/svg" viewBox="0 0 760 720" role="img" aria-labelledby="title desc">
  <title id="title">Operations specialist at a task desk</title>
  <desc id="desc">An original editorial illustration of a specialist using a laptop beside an operations board.</desc>
  <defs>
    <linearGradient id="wall" x1="0" y1="0" x2="1" y2="1"><stop stop-color="#d8f0df"/><stop offset="1" stop-color="#8cc8ad"/></linearGradient>
    <linearGradient id="shirt" x1="0" y1="0" x2="1" y2="1"><stop stop-color="#f58b49"/><stop offset="1" stop-color="#cf4f28"/></linearGradient>
    <filter id="shadow" x="-20%" y="-20%" width="140%" height="140%"><feDropShadow dx="0" dy="18" stdDeviation="18" flood-color="#102e2a" flood-opacity=".18"/></filter>
  </defs>
  <rect width="760" height="720" rx="48" fill="url(#wall)"/>
  <path d="M0 540C146 474 244 603 407 538s252-49 353-8v190H0z" fill="#eff7ea" opacity=".86"/>
  <circle cx="661" cy="96" r="112" fill="#f6d46e" opacity=".72"/>
  <g filter="url(#shadow)">
    <rect x="430" y="86" width="248" height="260" rx="24" fill="#f7f1df"/>
    <rect x="459" y="118" width="100" height="15" rx="7.5" fill="#153e38"/>
    <rect x="459" y="154" width="183" height="49" rx="12" fill="#fff"/>
    <circle cx="484" cy="178" r="8" fill="#49a57f"/>
    <path d="M505 171h101M505 185h72" stroke="#94a99c" stroke-width="8" stroke-linecap="round"/>
    <rect x="459" y="219" width="183" height="49" rx="12" fill="#fff"/>
    <circle cx="484" cy="243" r="8" fill="#f58b49"/>
    <path d="M505 236h86M505 250h111" stroke="#94a99c" stroke-width="8" stroke-linecap="round"/>
    <rect x="459" y="284" width="183" height="30" rx="12" fill="#153e38"/>
    <path d="M479 299h90" stroke="#eff7ea" stroke-width="8" stroke-linecap="round"/>
  </g>
  <g>
    <path d="M211 266c-33-89 8-170 98-170 84 0 126 65 113 145-6 36-21 65-50 87H242c-13-18-24-38-31-62z" fill="#1a2521"/>
    <ellipse cx="318" cy="225" rx="82" ry="97" fill="#c98763"/>
    <path d="M236 210c2-76 34-116 91-116 54 0 90 39 94 106-40-8-75-32-97-62-16 37-43 63-88 72z" fill="#242a26"/>
    <path d="M282 232c10 7 20 7 30 0M349 232c10 7 20 7 30 0" fill="none" stroke="#4c3026" stroke-width="7" stroke-linecap="round"/>
    <path d="M324 246l-7 24h14M291 286c19 16 47 17 68 0" fill="none" stroke="#8a493b" stroke-width="7" stroke-linecap="round"/>
    <path d="M244 339c62-35 139-26 179 22l40 188H171l29-165c5-24 19-36 44-45z" fill="url(#shirt)"/>
    <path d="M265 324c18 32 77 35 101 1l27 17c-22 66-115 69-151 9z" fill="#f7f1df"/>
    <path d="M210 398c-38 34-59 91-68 141l54 11 40-114M420 397c42 39 66 88 79 144l-56 9-48-116" fill="#c98763"/>
  </g>
  <g filter="url(#shadow)">
    <path d="M202 409h247l-24 164H225z" fill="#183c37"/>
    <rect x="175" y="565" width="303" height="24" rx="12" fill="#102e2a"/>
    <circle cx="327" cy="489" r="20" fill="#f6d46e"/>
    <path d="M316 489h22M327 478v22" stroke="#183c37" stroke-width="6" stroke-linecap="round"/>
  </g>
  <path d="M76 623h604" stroke="#153e38" stroke-width="18" stroke-linecap="round"/>
  <g fill="#153e38">
    <path d="M122 634h18l-11 86h-18zM610 634h18l11 86h-18z"/>
  </g>
  <g transform="translate(75 92)">
    <rect width="128" height="58" rx="18" fill="#153e38"/>
    <circle cx="27" cy="29" r="9" fill="#70d39f"/>
    <path d="M48 22h53M48 36h35" stroke="#f7f1df" stroke-width="8" stroke-linecap="round"/>
  </g>
</svg>
